Coordinates
version=1
nRows=22
nColumns=24
inDegrees=yes

Units are S.I. units (second, meters, Newtons, ...)
Angles are in degrees.

endheader
time	pelvis_tilt	pelvis_list	pelvis_rotation	pelvis_tx	pelvis_ty	pelvis_tz	hip_flexion_r	hip_adduction_r	hip_rotation_r	knee_angle_r	ankle_angle_r	subtalar_angle_r	mtp_angle_r	hip_flexion_l	hip_adduction_l	hip_rotation_l	knee_angle_l	ankle_angle_l	subtalar_angle_l	mtp_angle_l	lumbar_extension	lumbar_bending	lumbar_rotation
      1.50000000	      6.16595773	     -0.16812680	     -3.48968506	      0.60037489	      1.03681880	      0.00423388	      5.71534334	     -6.60365067	     -5.61715836	    -68.68409908	     -3.33619235	     -0.00000743	      0.00000000	      6.69108211	      2.25269637	     -3.52610245	    -16.69577110	      2.57126904	     -0.00000169	      0.00000000	    -15.65297862	     -4.21470047	     -1.80534646
      1.51666667	      6.20355670	     -0.50878046	     -2.82487729	      0.59906101	      1.03947128	      0.00179197	      7.92433675	     -6.11037162	     -5.98733585	    -69.62996073	     -1.52979302	     -0.00000751	      0.00000000	      4.97121302	      2.15096613	     -2.75724700	    -15.54868993	      3.00431285	     -0.00000154	      0.00000000	    -15.74136639	     -3.56782137	     -2.64500745
      1.53333333	      6.23955122	     -0.81262563	     -2.25894531	      0.59784007	      1.04179378	     -0.00053589	     10.00819061	     -5.54701093	     -6.16993292	    -69.77814918	     -0.16836876	     -0.00000729	      0.00000000	      3.17072815	      2.04895833	     -2.12037345	    -14.23586255	      3.35813677	     -0.00000146	      0.00000000	    -15.83655592	     -3.01966926	     -3.59326027
      1.55000000	      6.04980582	     -0.91110129	     -1.85939059	      0.59547124	      1.04291202	     -0.00242280	     12.40862434	     -5.14872599	     -6.17737392	    -69.42427905	      0.81893317	     -0.00000662	      0.00000000	      1.83888802	      2.09776638	     -1.71290308	    -13.22995265	      3.75548095	     -0.00000130	      0.00000000	    -15.80769506	     -2.74411434	     -4.07654342
      1.56666667	      6.06479187	     -1.31981893	     -1.07000432	      0.59412730	      1.04432792	     -0.00441723	     14.07827818	     -4.48205811	     -6.69829156	    -67.94437489	      1.41474125	     -0.00000586	      0.00000000	      0.17244065	      1.78086307	     -0.89142025	    -12.10334645	      4.21739532	     -0.00000114	      0.00000000	    -15.86010144	     -2.04225612	     -4.89709698
      1.58333333	      6.00486447	     -1.52503568	     -0.59384874	      0.59212099	      1.04494097	     -0.00591275	     15.81652727	     -4.02789788	     -6.94347019	    -65.92250135	      1.81622006	     -0.00000496	      0.00000000	     -1.28150451	      1.63460657	     -0.37080960	    -11.16852258	      4.70992552	     -0.00000096	      0.00000000	    -15.92254844	     -1.65263518	     -5.49154657
      1.60000000	      5.98620406	     -1.74534771	     -0.33088851	      0.59094364	      1.04533742	     -0.00709923	     17.22139274	     -3.52438686	     -7.02411090	    -63.10680792	      2.09555481	     -0.00000441	      0.00000000	     -2.99821349	      1.45366195	     -0.04201265	     -9.89737433	      5.09799465	     -0.00000076	      0.00000000	    -15.97928259	     -1.22884246	     -5.71600347
      1.61666667	      5.88217091	     -1.72113619	      0.03478939	      0.58805675	      1.04492334	     -0.00831645	     18.59556941	     -3.43036694	     -7.35463872	    -59.71696062	      2.34115445	     -0.00000411	      0.00000000	     -4.36255006	      1.50262475	      0.45301260	     -8.90875494	      5.47046312	     -0.00000075	      0.00000000	    -16.16164253	     -1.11774350	     -5.95254296
      1.63333333	      5.54518366	     -1.78140158	      0.17529989	      0.58603414	      1.04352883	     -0.00918824	     19.90731586	     -3.29262917	     -7.75964326	    -55.63790695	      2.56483500	     -0.00000430	      0.00000000	     -5.44713320	      1.47245205	      0.66655361	     -8.13880987	      6.08180617	     -0.00000061	      0.00000000	    -15.85150546	     -0.90652047	     -6.13418963
      1.65000000	      5.36950515	     -1.50548164	      0.12050515	      0.58365832	      1.04190214	     -0.01003482	     20.81516715	     -3.52996044	     -8.13756544	    -50.93867987	      2.73401628	     -0.00000484	      0.00000000	     -6.77765644	      1.83032777	      0.64962850	     -7.17914200	      6.52763258	     -0.00000046	      0.00000000	    -15.81294611	     -1.04288814	     -6.16539585
      1.66666667	      5.34631717	     -1.40402545	      0.19438340	      0.58213746	      1.04030756	     -0.01043619	     21.05896016	     -3.63316138	     -9.07920643	    -45.39637748	      2.68089545	     -0.00000554	      0.00000000	     -8.36380738	      1.93637833	      0.71066442	     -6.13377810	      6.99026269	     -0.00000023	      0.00000000	    -15.95264023	     -1.02475605	     -6.15826056
      1.68333333	      5.14046507	     -0.99664147	      0.11509638	      0.58023058	      1.03753920	     -0.01098372	     21.43891550	     -3.96011937	     -9.86595745	    -39.62214316	      2.48132069	     -0.00000583	      0.00000000	     -9.52943602	      2.40381159	      0.71886302	     -5.54806194	      7.69285136	      0.00000001	      0.00000000	    -15.88532662	     -1.32512095	     -6.20032851
      1.70000000	      4.82962903	     -0.67514991	      0.08535034	      0.57921994	      1.03439138	     -0.01104570	     21.53300424	     -4.02011269	    -10.67012177	    -33.26288483	      2.16926063	     -0.00000580	      0.00000000	    -10.72718049	      2.73204541	      0.79210697	     -4.78861479	      8.35729960	      0.00000022	      0.00000000	    -15.60287354	     -1.55713785	     -6.28761219
      1.71666667	      4.93821378	     -0.16952477	      0.03813958	      0.57782752	      1.03166192	     -0.01089127	     21.01588654	     -4.06347151	    -10.95082835	    -26.64294842	      1.75546672	     -0.00000511	      0.00000000	    -12.30533850	      3.26417464	      0.90213383	     -4.13385255	      8.98162122	      0.00000027	      0.00000000	    -15.89683239	     -2.02859306	     -6.27603056
      1.73333333	      4.77370949	      0.36031301	     -0.02003838	      0.57668842	      1.02796590	     -0.01078854	     20.67735950	     -4.00896400	    -10.56190732	    -20.04656495	      1.40032697	     -0.00000417	      0.00000000	    -13.64236317	      3.84619300	      1.05032178	     -3.42543678	      9.63774804	      0.00000006	      0.00000000	    -15.85076729	     -2.45789658	     -6.18972161
      1.75000000	      4.63500187	      0.93559152	     -0.04534283	      0.57628017	      1.02406993	     -0.01044644	     20.18103056	     -3.98922487	     -9.51722964	    -13.69287997	      1.17078619	     -0.00000301	      0.00000000	    -15.00133133	      4.43896084	      1.30431087	     -2.82996872	     10.29692000	     -0.00000014	      0.00000000	    -15.68761441	     -2.92841334	     -6.49959599
      1.76666667	      4.61343231	      1.48014862	      0.00240923	      0.57624542	      1.02013680	     -0.00983366	     19.55546333	     -4.03549655	     -8.04217271	     -8.05689084	      1.14422818	     -0.00000208	      0.00000000	    -16.46798390	      4.92056840	      1.68401619	     -2.32294814	     10.92807446	     -0.00000014	      0.00000000	    -15.68272480	     -3.36928531	     -6.72083457
      1.78333333	      4.59962193	      1.91405876	      0.25833217	      0.57670638	      1.01621583	     -0.00945032	     18.97547447	     -4.17552113	     -6.61300006	     -3.52078574	      1.41395975	     -0.00000137	      0.00000000	    -17.98750550	      5.18837750	      2.32477307	     -1.79054758	     11.45892986	     -0.00000006	      0.00000000	    -15.58345054	     -3.60174826	     -7.22229822
      1.80000000	      4.54128585	      2.28116038	      0.43799043	      0.57702772	      1.01250017	     -0.00879822	     18.69962023	     -4.32464777	     -5.23537778	     -0.43940691	      1.75044920	     -0.00000095	      0.00000000	    -19.16984259	      5.37371739	      2.90909582	     -1.83055488	     12.11822488	      0.00000011	      0.00000000	    -15.46358337	     -3.78163771	     -7.53321156
      1.81666667	      4.60287247	      2.61296107	      0.74756105	      0.57731846	      1.00956800	     -0.00816972	     18.64286400	     -4.54091852	     -4.26947719	      0.81552038	      2.12464290	     -0.00000075	      0.00000000	    -20.21799683	      5.45543227	      3.59732713	     -2.38354753	     12.75794850	      0.00000056	      0.00000000	    -15.60362197	     -3.88255129	     -7.90307953
      1.83333333	      4.70724648	      2.51334574	      1.19936314	      0.57792488	      1.00735121	     -0.00748702	     18.66252071	     -4.34996987	     -3.98835253	      0.66020282	      2.06474162	     -0.00000068	      0.00000000	    -21.19815630	      5.02819804	      4.32031979	     -3.16699795	     13.37051385	      0.00000078	      0.00000000	    -15.70364633	     -3.40779947	     -8.40548881
      1.85000000	      4.63541315	      2.35197390	      1.37078320	      0.57937507	      1.00550801	     -0.00576525	     19.31908516	     -3.98243675	     -3.65094697	     -1.31844824	      1.82571341	     -0.00000099	      0.00000000	    -21.80870737	      4.60868047	      4.66733684	     -4.36674235	     13.85792010	      0.00000128	      0.00000000	    -15.54813371	     -3.04275700	     -8.40954570
